#tb 0: 1/22050
#media_type 0: audio
#codec_id 0: pcm_s16le
#sample_rate 0: 22050
#channel_layout_name 0: mono
0,          0,          0,      882,     1764, 0xce976a71
0,        882,        882,      882,     1764, 0xe7b76c72
0,       1764,       1764,      882,     1764, 0x2b0b6c6f
0,       2646,       2646,      882,     1764, 0xa65d6c4e
0,       3528,       3528,      882,     1764, 0x9ebc6c6f
0,       4410,       4410,      882,     1764, 0x902b6a72
0,       5292,       5292,      882,     1764, 0x90d46a73
0,       6174,       6174,      882,     1764, 0x92176a6f
0,       7056,       7056,      882,     1764, 0xaaae6a74
0,       7938,       7938,      882,     1764, 0x81da6c71
